<?xml version="1.0" encoding="utf-8"?>
<!-- Generator: Adobe Illustrator 16.0.0, SVG Export Plug-In . SVG Version: 6.00 Build 0)  -->
<!DOCTYPE svg PUBLIC "-//W3C//DTD SVG 1.1//EN" "http://www.w3.org/Graphics/SVG/1.1/DTD/svg11.dtd">
<svg version="1.1" id="Layer_1" xmlns="http://www.w3.org/2000/svg" xmlns:xlink="http://www.w3.org/1999/xlink" x="0px" y="0px"
	 width="360px" height="360px" viewBox="0 0 360 360" enable-background="new 0 0 360 360" xml:space="preserve">
<g>
	<path stroke="#000000" stroke-miterlimit="10" d="M148.28,25.665h-13.247H25.065v10.119v99.212v9.419h233.333v-9.419H148.28V35.784
		h0.579v10.642h40.393v0.001h-9.212v17.009h-31.181v42.519h31.181v17.008h-31.181V134.3h40.392v-11.337h0.001V134.3h18.426h40.393
		v0.695h10.328V35.784v-0.696v-9.423H148.28z M76.214,134.996H35.82v-11.339h40.394V134.996z M76.214,47.122H35.821v17.009h40.393
		v42.518H35.82V35.784h40.394V47.122z M135.033,134.996H94.639v-11.339h40.394V134.996z M135.033,106.649H94.639V64.131h40.394
		V106.649z M135.033,47.122H94.639V35.784h40.394V47.122z M207.678,46.426h40.393v17.009h-31.18V46.427L207.678,46.426
		L207.678,46.426z M216.891,122.963v-17.009h31.18v17.009H216.891z"/>
	<circle stroke="#000000" stroke-miterlimit="10" cx="66.01" cy="85.391" r="5.953"/>
	<circle stroke="#000000" stroke-miterlimit="10" cx="104.844" cy="85.391" r="5.953"/>
</g>
</svg>
