<?xml version="1.0" encoding="utf-8"?>
<!-- Generator: Adobe Illustrator 16.0.0, SVG Export Plug-In . SVG Version: 6.00 Build 0)  -->
<!DOCTYPE svg PUBLIC "-//W3C//DTD SVG 1.1//EN" "http://www.w3.org/Graphics/SVG/1.1/DTD/svg11.dtd">
<svg version="1.1" id="Layer_1" xmlns="http://www.w3.org/2000/svg" xmlns:xlink="http://www.w3.org/1999/xlink" x="0px" y="0px"
	 width="360px" height="360px" viewBox="0 0 360 360" enable-background="new 0 0 360 360" xml:space="preserve">
<path fill="#FFFFFF" stroke="#000000" stroke-width="0.01" stroke-miterlimit="10" d="M148.95,79.811V41.734
	c2.954-0.351,5.245-2.86,5.245-5.907c0-3.288-2.665-5.953-5.953-5.953c-3.098,0-5.641,2.364-5.926,5.386H54.954
	c-0.285-3.021-2.828-5.386-5.925-5.386c-3.289,0-5.955,2.665-5.955,5.953c0,3.047,2.292,5.556,5.246,5.906v38.077
	c-2.954,0.351-5.246,2.859-5.246,5.906c0,3.287,2.666,5.953,5.955,5.953c3.097,0,5.639-2.365,5.925-5.386h87.362
	c0.285,3.021,2.828,5.386,5.926,5.386c3.288,0,5.953-2.665,5.953-5.953C154.195,82.669,151.904,80.161,148.95,79.811z"/>
<circle stroke="#000000" stroke-width="0.01" stroke-miterlimit="10" cx="98.635" cy="60.771" r="7.02"/>
<g>
</g>
<g>
</g>
<g>
</g>
<g>
</g>
<g>
</g>
</svg>
